<svg width="127" height="64" fill="none" xmlns="http://www.w3.org/2000/svg"><path d="M15.075.918h2.54c.161 0 .27.107.27.267V26.61c0 .16-.109.266-.27.266h-2.54c-.162 0-.27-.106-.27-.266V1.185c.053-.16.162-.267.27-.267zm17.668 20.949v.64c0 .372-.054.799-.162 1.172-.108.533-.379 1.013-.757 1.44-.54.532-1.134.959-1.837 1.225-1.08.373-2.215.587-3.404.533-1.134.054-2.323-.16-3.404-.533a4.823 4.823 0 01-1.837-1.226c-.378-.426-.648-.906-.756-1.439-.108-.373-.108-.746-.162-1.12V8.009c0-.16.108-.267.27-.267h2.54c.161 0 .27.107.27.267v13.539c0 .32.053.693.107 1.013.109.266.217.533.433.746.27.267.54.48.918.586.54.16 1.08.267 1.621.267.54 0 1.135-.053 1.675-.267.324-.106.649-.266.919-.533.216-.213.378-.426.432-.693.108-.32.162-.693.162-1.066V8.008c0-.16.108-.267.216-.267h2.594c.162 0 .27.107.27.267l-.108 13.859zM41.55 7.795h1.729c.108 0 .216.106.216.213v.053L42.9 10.3c0 .106-.109.16-.217.16h-1.188c-.54 0-1.08.053-1.567.266-.324.107-.648.32-.919.587-.216.213-.324.426-.432.692-.054.214-.108.48-.108.693v13.86c0 .16-.108.266-.27.266h-2.594c-.108 0-.216-.107-.216-.267V12.113c0-.373.054-.746.162-1.12.108-.532.379-1.065.757-1.438.54-.533 1.134-.96 1.837-1.226 1.08-.427 2.215-.587 3.404-.533zm-35.39 0c2.107 0 3.62.426 4.646 1.226a3.956 3.956 0 011.459 3.091V22.56c0 .48-.108.96-.27 1.386a2.998 2.998 0 01-.919 1.385c-.54.48-1.188.853-1.89 1.067-.973.32-2.054.48-3.08.426-1.027 0-2.108-.107-3.08-.426a4.5 4.5 0 01-1.837-1.067 2.998 2.998 0 01-.919-1.385c-.162-.427-.216-.907-.27-1.386v-1.653c0-.853.27-1.706.702-2.398a3.51 3.51 0 012-1.6c.432-.16.918-.266 1.458-.48.54-.212 1.081-.372 1.621-.532.54-.16.919-.32 1.351-.48.432-.16.648-.213.702-.267.109-.053.217-.106.379-.213.162-.106.324-.213.432-.373.162-.16.27-.32.378-.533.108-.213.162-.48.162-.746v-.746c0-.534-.27-1.066-.648-1.44-.27-.213-.594-.426-.919-.533a3.584 3.584 0 00-1.513-.16c-1.188 0-1.999.267-2.43.747-.38.426-.595.96-.65 1.545 0 .107-.107.214-.215.214H.27c-.162 0-.27-.107-.27-.267v-.64c0-.586.108-1.119.324-1.652a3.364 3.364 0 011.08-1.386 4.78 4.78 0 011.892-.906c.972-.213 1.945-.266 2.864-.266zm3.08 9.328c-.055.213-.163.426-.379.533-.162.106-.324.213-.54.266-.378.107-.757.267-1.189.373-.432.107-.81.267-1.189.427-.378.16-.864.266-1.188.426-.27.16-.595.32-.81.48-.217.213-.433.48-.595.746a2.63 2.63 0 00-.27 1.12c-.054.746.162 1.439.648 2.025.432.427 1.243.64 2.432.64 1.188 0 1.999-.267 2.43-.693.487-.533.703-1.226.65-1.972v-4.371zm41.495-9.328c2.107 0 3.62.426 4.647 1.226a3.956 3.956 0 011.459 3.091V22.56c0 .48-.108.96-.27 1.386a2.998 2.998 0 01-.92 1.385c-.54.48-1.188.853-1.89 1.067-.973.32-2.053.48-3.08.426-1.027 0-2.107-.107-3.08-.426a4.5 4.5 0 01-1.837-1.067 2.997 2.997 0 01-.918-1.385c-.162-.427-.216-.907-.27-1.386v-1.653c0-.853.27-1.706.702-2.398a3.509 3.509 0 011.999-1.6c.432-.16.919-.266 1.459-.48.54-.212 1.08-.372 1.62-.532.541-.16.92-.32 1.352-.48.432-.16.648-.213.702-.267.108-.053.27-.106.378-.213.162-.106.324-.213.432-.373.163-.16.27-.32.379-.533.108-.213.162-.48.162-.746v-.746c0-.534-.27-1.066-.649-1.44-.27-.213-.594-.426-.918-.533-.486-.16-.973-.213-1.513-.213-1.189 0-2 .267-2.431.746-.379.427-.595.96-.649 1.546 0 .107-.108.213-.216.213h-2.593c-.163 0-.27-.106-.217-.266v-.587c0-.586.109-1.119.325-1.652a3.363 3.363 0 011.08-1.386c.595-.426 1.243-.746 1.891-.906.973-.213 1.945-.266 2.864-.266zm3.08 9.328c-.054.213-.162.426-.378.533-.162.106-.325.213-.54.266-.379.107-.757.267-1.19.373-.432.107-.81.267-1.188.427-.378.16-.865.266-1.189.426-.27.16-.594.32-.81.48a4.03 4.03 0 00-.595.746c-.216.32-.27.747-.27 1.12-.054.746.162 1.439.649 2.025.432.427 1.242.64 2.377.64 1.135 0 2-.267 2.431-.693.433-.533.703-1.226.649-1.972l.054-4.371z" fill="#fff"/><path d="M15.507 32.58c4.322 0 7.456 1.333 10.374 3.945.378.32.378.853.054 1.173l-3.35 3.411c-.324.32-.756.32-1.08 0a8.84 8.84 0 00-5.782-2.185c-4.863 0-8.429 3.998-8.429 8.742 0 4.69 3.62 8.582 8.483 8.582 2 0 4.214-.747 5.781-2.026.325-.266.865-.266 1.135.053l3.35 3.519c.324.32.27.852-.054 1.119-2.918 2.772-6.592 4.104-10.428 4.104-8.59 0-15.507-6.716-15.507-15.191 0-8.476 6.862-15.245 15.453-15.245zM27.286 61.578L40.739 33.06c.108-.266.433-.48.757-.48h.378c.324 0 .594.214.756.48l13.454 28.518c.27.533-.108 1.12-.756 1.12h-4.755c-.757 0-1.135-.267-1.513-1.067l-1.567-3.358h-11.67l-1.567 3.412c-.217.533-.703 1.012-1.567 1.012h-4.701c-.648 0-.973-.533-.702-1.119zm17.668-9.062l-3.242-6.982h-.054l-3.242 6.982h6.538zM57.867 58.646l2-3.518c.324-.533 1.134-.48 1.458-.266.162.106 3.242 2.345 6.106 2.345 1.729 0 2.972-1.066 2.972-2.559 0-1.759-1.513-3.144-4.431-4.264-3.674-1.439-8.32-4.264-8.32-9.381 0-4.211 3.295-8.422 9.94-8.422 4.486 0 7.89 2.238 9.186 3.198.54.32.432 1.066.27 1.333l-2.215 3.251c-.324.48-1.08.853-1.459.533-.378-.213-3.512-2.558-6.16-2.558-1.566 0-2.7 1.012-2.7 2.185 0 1.546 1.296 2.772 4.7 4.104 3.35 1.333 8.699 3.892 8.699 9.648 0 4.371-3.836 8.796-10.158 8.796-5.565 0-8.699-2.292-9.671-3.252-.433-.373-.54-.586-.217-1.173zM83.154 33.808c0-.427.324-.8.81-.8h17.777a.79.79 0 01.81.8v4.637a.79.79 0 01-.81.8H89.854v5.277h9.833c.433 0 .811.373.811.8v4.637c0 .48-.378.8-.81.8h-9.78v5.703h11.887a.79.79 0 01.81.8v4.637a.79.79 0 01-.81.8H84.018a.79.79 0 01-.81-.8V33.808h-.054zM106.657 58.646l1.999-3.518c.324-.533 1.135-.48 1.459-.266.162.106 3.242 2.345 6.106 2.345 1.729 0 2.971-1.066 2.971-2.559 0-1.759-1.513-3.144-4.43-4.264-3.674-1.439-8.321-4.264-8.321-9.381 0-4.211 3.296-8.422 9.942-8.422 4.484 0 7.888 2.238 9.185 3.198.54.32.432 1.066.27 1.333l-2.215 3.251c-.324.48-1.081.853-1.459.533-.378-.213-3.512-2.558-6.16-2.558-1.566 0-2.701 1.012-2.701 2.185 0 1.546 1.297 2.772 4.701 4.104 3.35 1.333 8.699 3.892 8.699 9.648 0 4.371-3.837 8.796-10.158 8.796-5.565 0-8.699-2.292-9.672-3.252-.432-.373-.594-.586-.216-1.173z" fill="#A56CFF"/></svg>